<svg width="24" height="24" viewBox="0 0 24 24" fill="none" xmlns="http://www.w3.org/2000/svg">
<path fill-rule="evenodd" clip-rule="evenodd" d="M19.7333 19.7363C19.8805 19.5901 19.8809 19.3521 19.7343 19.2053L16.4111 15.8791C17.5425 14.6154 18.2355 12.9543 18.2355 11.1244C18.2355 7.191 15.0475 4 11.1178 4C7.18801 4 4 7.191 4 11.1244C4 15.0579 7.18801 18.2489 11.1178 18.2489C12.9534 18.2489 14.6167 17.5477 15.8792 16.4078L19.2037 19.7354C19.3498 19.8816 19.5867 19.8821 19.7333 19.7363ZM4.74924 11.1244C4.74924 7.61097 7.60759 4.74994 11.1178 4.74994C14.628 4.74994 17.4863 7.61097 17.4863 11.1244C17.4863 14.6379 14.628 17.4989 11.1178 17.4989C7.60759 17.4989 4.74924 14.6379 4.74924 11.1244Z" fill="#9E9E9E" stroke="#9E9E9E" stroke-linecap="round" stroke-linejoin="round"/>
</svg>
